<svg width="27" height="27" viewBox="0 0 27 27" fill="none" xmlns="http://www.w3.org/2000/svg">
<path d="M25.3125 13.4262C25.3125 13.3682 25.3125 13.3022 25.3099 13.2258C25.3072 13.0122 25.302 12.7723 25.2967 12.5165C25.2756 11.7808 25.2387 11.0478 25.1807 10.357C25.1016 9.40516 24.9855 8.61151 24.8273 8.01561C24.6604 7.39374 24.3331 6.82658 23.8783 6.37082C23.4235 5.91506 22.857 5.58666 22.2354 5.41844C21.4893 5.21805 20.0285 5.09413 17.9719 5.01766C16.9937 4.98075 15.9469 4.95702 14.9001 4.94384C14.5336 4.93856 14.1935 4.93593 13.8876 4.93329H13.1124C12.8065 4.93593 12.4664 4.93856 12.0999 4.94384C11.0531 4.95702 10.0063 4.98075 9.02812 5.01766C6.97148 5.09677 5.50811 5.22069 4.76455 5.41844C4.14282 5.58624 3.5761 5.9145 3.1212 6.37033C2.6663 6.82616 2.33919 7.39354 2.17266 8.01561C2.01182 8.61151 1.89844 9.40516 1.81934 10.357C1.76133 11.0478 1.72441 11.7808 1.70332 12.5165C1.69541 12.7723 1.69277 13.0122 1.69014 13.2258C1.69014 13.3022 1.6875 13.3682 1.6875 13.4262V13.5738C1.6875 13.6318 1.6875 13.6977 1.69014 13.7742C1.69277 13.9878 1.69805 14.2277 1.70332 14.4835C1.72441 15.2191 1.76133 15.9521 1.81934 16.643C1.89844 17.5948 2.01445 18.3885 2.17266 18.9844C2.51016 20.2474 3.50156 21.244 4.76455 21.5815C5.50811 21.7819 6.97148 21.9058 9.02812 21.9823C10.0063 22.0192 11.0531 22.043 12.0999 22.0561C12.4664 22.0614 12.8065 22.0641 13.1124 22.0667H13.8876C14.1935 22.0641 14.5336 22.0614 14.9001 22.0561C15.9469 22.043 16.9937 22.0192 17.9719 21.9823C20.0285 21.9032 21.4919 21.7793 22.2354 21.5815C23.4984 21.244 24.4898 20.25 24.8273 18.9844C24.9882 18.3885 25.1016 17.5948 25.1807 16.643C25.2387 15.9521 25.2756 15.2191 25.2967 14.4835C25.3046 14.2277 25.3072 13.9878 25.3099 13.7742C25.3099 13.6977 25.3125 13.6318 25.3125 13.5738V13.4262ZM23.4141 13.5633C23.4141 13.6186 23.4141 13.6793 23.4114 13.7505C23.4088 13.9561 23.4035 14.1829 23.3982 14.4281C23.3798 15.1295 23.3429 15.8308 23.2875 16.4821C23.2163 17.3311 23.1161 18.0272 22.9922 18.4939C22.8287 19.103 22.3488 19.5855 21.7424 19.7464C21.1887 19.894 19.7938 20.0127 17.898 20.0839C16.9383 20.1208 15.9047 20.1445 14.8737 20.1577C14.5125 20.163 14.1776 20.1656 13.8771 20.1656H13.1229L12.1263 20.1577C11.0953 20.1445 10.0644 20.1208 9.10195 20.0839C7.20615 20.01 5.80869 19.894 5.25762 19.7464C4.65117 19.5829 4.17129 19.103 4.00781 18.4939C3.88389 18.0272 3.78369 17.3311 3.7125 16.4821C3.65713 15.8308 3.62285 15.1295 3.60176 14.4281C3.59385 14.1829 3.59121 13.9535 3.58857 13.7505C3.58857 13.6793 3.58594 13.616 3.58594 13.5633V13.4367C3.58594 13.3813 3.58594 13.3207 3.58857 13.2495C3.59121 13.0438 3.59648 12.8171 3.60176 12.5719C3.62022 11.8705 3.65713 11.1691 3.7125 10.5179C3.78369 9.66884 3.88389 8.97274 4.00781 8.50604C4.17129 7.89696 4.65117 7.41444 5.25762 7.2536C5.81133 7.10594 7.20615 6.98729 9.10195 6.9161C10.0617 6.87919 11.0953 6.85546 12.1263 6.84227C12.4875 6.837 12.8224 6.83436 13.1229 6.83436H13.8771L14.8737 6.84227C15.9047 6.85546 16.9356 6.87919 17.898 6.9161C19.7938 6.98993 21.1913 7.10594 21.7424 7.2536C22.3488 7.41708 22.8287 7.89696 22.9922 8.50604C23.1161 8.97274 23.2163 9.66884 23.2875 10.5179C23.3429 11.1691 23.3771 11.8705 23.3982 12.5719C23.4062 12.8171 23.4088 13.0465 23.4114 13.2495C23.4114 13.3207 23.4141 13.384 23.4141 13.4367V13.5633ZM11.1533 17.0332L17.2705 13.4736L11.1533 9.96678V17.0332Z" fill="white"/>
</svg>
