<svg width="169" height="105" viewBox="0 0 169 105" fill="none" xmlns="http://www.w3.org/2000/svg">
<g clip-path="url(#clip0_25_10)">
<path d="M62.3594 55.6719C62.3594 44.7344 63.8594 36.2188 66.8594 30.125C69.8594 24 75.5781 20.9375 84.0156 20.9375C92.4531 20.9375 98.1719 24 101.172 30.125C104.172 36.2188 105.672 44.7344 105.672 55.6719C105.672 66.6094 104.172 75.1406 101.172 81.2656C98.1719 87.3594 92.4531 90.4062 84.0156 90.4062C75.5781 90.4062 69.8594 87.3594 66.8594 81.2656C63.8594 75.1406 62.3594 66.6094 62.3594 55.6719ZM71.0781 55.6719C71.0781 64.4219 71.8281 71.2812 73.3281 76.25C74.8281 81.1875 78.3906 83.6562 84.0156 83.6562C89.6406 83.6562 93.2031 81.1875 94.7031 76.25C96.2031 71.2812 96.9531 64.4219 96.9531 55.6719C96.9531 46.9219 96.2031 40.0781 94.7031 35.1406C93.2031 30.1719 89.6406 27.6875 84.0156 27.6875C78.3906 27.6875 74.8281 30.1719 73.3281 35.1406C71.8281 40.0781 71.0781 46.9219 71.0781 55.6719Z" fill="#3BBDC4"/>
<path d="M11.1094 72.4062C9.70312 72.4062 9 71.7031 9 70.2969V66.1719C9 65.1719 9.375 64.0938 10.125 62.9375L35.8594 23.1875C36.5781 22.0625 37.4531 21.5 38.4844 21.5H42.75C44.1875 21.5 44.9062 22.2031 44.9062 23.6094V64.7188H52.9219C54.3281 64.7188 55.0312 65.4219 55.0312 66.8281V70.2969C55.0312 71.7031 54.3438 72.4062 52.9688 72.4062H44.9062V86.8906C44.9062 88.2969 44.2031 89 42.7969 89H38.7656C37.3594 89 36.6562 88.2969 36.6562 86.8906V72.4062H11.1094ZM17.3906 64.7188H36.6562V37.7656C36.6562 36.8281 36.6875 35.8906 36.75 34.9531H36.6562L17.3906 64.7188Z" fill="#3BBDC4"/>
<path d="M114.109 72.4062C112.703 72.4062 112 71.7031 112 70.2969V66.1719C112 65.1719 112.375 64.0937 113.125 62.9375L138.859 23.1875C139.578 22.0625 140.453 21.5 141.484 21.5H145.75C147.187 21.5 147.906 22.2031 147.906 23.6094V64.7187H155.922C157.328 64.7187 158.031 65.4219 158.031 66.8281V70.2969C158.031 71.7031 157.344 72.4062 155.969 72.4062H147.906V86.8906C147.906 88.2969 147.203 89 145.797 89H141.766C140.359 89 139.656 88.2969 139.656 86.8906V72.4062H114.109ZM120.391 64.7187H139.656V37.7656C139.656 36.8281 139.687 35.8906 139.75 34.9531H139.656L120.391 64.7187Z" fill="#3BBDC4"/>
</g>
<defs>
<clipPath id="clip0_25_10">
<rect width="169" height="105" fill="white"/>
</clipPath>
</defs>
</svg>
