<svg width="80" height="80" viewBox="0 0 80 80" fill="none" xmlns="http://www.w3.org/2000/svg">
<g clip-path="url(#clip0_881_25)">
<circle cx="40" cy="40" r="38.5" stroke="#C00000" stroke-width="3"/>
<path d="M38.268 8C39.0378 6.66666 40.9623 6.66667 41.7321 8L68.5788 54.5C69.3486 55.8333 68.3864 57.5 66.8468 57.5H13.1532C11.6136 57.5 10.6514 55.8333 11.4212 54.5L38.268 8Z" fill="#C00000"/>
<path d="M40.25 36.2727L40.1648 42.5455H39.1761L39.0909 36.2727H40.25ZM39.6705 45.0682C39.4602 45.0682 39.2798 44.9929 39.1293 44.8423C38.9787 44.6918 38.9034 44.5114 38.9034 44.3011C38.9034 44.0909 38.9787 43.9105 39.1293 43.7599C39.2798 43.6094 39.4602 43.5341 39.6705 43.5341C39.8807 43.5341 40.0611 43.6094 40.2116 43.7599C40.3622 43.9105 40.4375 44.0909 40.4375 44.3011C40.4375 44.4403 40.402 44.5682 40.331 44.6847C40.2628 44.8011 40.1705 44.8949 40.054 44.9659C39.9403 45.0341 39.8125 45.0682 39.6705 45.0682Z" fill="white"/>
</g>
<defs>
<clipPath id="clip0_881_25">
<rect width="80" height="80" fill="white"/>
</clipPath>
</defs>
</svg>
